<?xml version="1.0" encoding="UTF-8"?><svg xmlns="http://www.w3.org/2000/svg" xmlns:xlink="http://www.w3.org/1999/xlink" contentScriptType="text/ecmascript" width="150" zoomAndPan="magnify" contentStyleType="text/css" viewBox="0 0 150 149.999998" height="149.999998" preserveAspectRatio="xMidYMid meet" version="1.0"><defs><clipPath id="clip-0"><path d="M 0 22.21875 L 150 22.21875 L 150 127.96875 L 0 127.96875 Z M 0 22.21875 " clip-rule="nonzero"/></clipPath></defs><g clip-path="url(#clip-0)"><path fill="rgb(100%, 0%, 0%)" d="M 146.726562 38.808594 C 146.292969 37.214844 145.664062 35.703125 144.839844 34.277344 C 144.011719 32.847656 143.015625 31.550781 141.851562 30.382812 C 140.6875 29.214844 139.390625 28.214844 137.964844 27.390625 C 136.539062 26.5625 135.03125 25.929688 133.4375 25.5 C 121.789062 22.3125 74.90625 22.3125 74.90625 22.3125 C 74.90625 22.3125 28.019531 22.40625 16.367188 25.59375 C 14.777344 26.023438 13.269531 26.65625 11.84375 27.484375 C 10.417969 28.308594 9.121094 29.308594 7.957031 30.476562 C 6.789062 31.644531 5.792969 32.941406 4.96875 34.371094 C 4.140625 35.796875 3.511719 37.308594 3.082031 38.902344 C 0 50.574219 0 74.976562 0 74.976562 C 0 74.976562 0 99.378906 3.179688 111.144531 C 3.609375 112.738281 4.238281 114.25 5.066406 115.675781 C 5.890625 117.105469 6.886719 118.402344 8.050781 119.570312 C 9.21875 120.738281 10.511719 121.734375 11.941406 122.5625 C 13.367188 123.390625 14.875 124.023438 16.464844 124.453125 C 28.113281 127.640625 75 127.640625 75 127.640625 C 75 127.640625 121.886719 127.640625 133.539062 124.457031 C 135.128906 124.023438 136.636719 123.394531 138.0625 122.566406 C 139.488281 121.738281 140.785156 120.742188 141.949219 119.574219 C 143.117188 118.40625 144.109375 117.109375 144.9375 115.679688 C 145.765625 114.25 146.394531 112.738281 146.824219 111.144531 C 150 99.472656 150 74.976562 150 74.976562 C 150 74.976562 149.90625 50.574219 146.726562 38.808594 Z M 146.726562 38.808594 " fill-opacity="1" fill-rule="nonzero"/></g><path fill="rgb(100%, 100%, 100%)" d="M 59.980469 97.542969 L 98.875 74.976562 L 59.980469 52.410156 Z M 59.980469 97.542969 " fill-opacity="1" fill-rule="nonzero"/></svg>